<?xml version="1.0" encoding="UTF-8"?>
<svg version="1.1" xmlns="http://www.w3.org/2000/svg" width="192" height="192">
<path d="M0 0 C63.36 0 126.72 0 192 0 C192 63.36 192 126.72 192 192 C128.64 192 65.28 192 0 192 C0 128.64 0 65.28 0 0 Z " fill="#D6C2FE" transform="translate(0,0)"/>
<path d="M0 0 C63.36 0 126.72 0 192 0 C192 63.36 192 126.72 192 192 C128.64 192 65.28 192 0 192 C0 128.64 0 65.28 0 0 Z M57 14 C57 15.65 57 17.3 57 19 C55.02 19 53.04 19 51 19 C51 20.65 51 22.3 51 24 C49.35 24 47.7 24 46 24 C46 25.98 46 27.96 46 30 C44.02 30 42.04 30 40 30 C40 31.65 40 33.3 40 35 C38.35 35 36.7 35 35 35 C35 75.26 35 115.52 35 157 C36.65 157 38.3 157 40 157 C40 158.65 40 160.3 40 162 C41.98 162 43.96 162 46 162 C46 163.98 46 165.96 46 168 C47.65 168 49.3 168 51 168 C51 169.65 51 171.3 51 173 C54.63 173 58.26 173 62 173 C62 174.65 62 176.3 62 178 C65.63 178 69.26 178 73 178 C73 176.35 73 174.7 73 173 C74.32 173 75.64 173 77 173 C77 174.65 77 176.3 77 178 C80.63 178 84.26 178 88 178 C88 176.35 88 174.7 88 173 C109.12 173 130.24 173 152 173 C152 171.35 152 169.7 152 168 C153.65 168 155.3 168 157 168 C157 166.02 157 164.04 157 162 C155.35 162 153.7 162 152 162 C152 158.7 152 155.4 152 152 C153.65 152 155.3 152 157 152 C157 108.11 157 64.22 157 19 C155.35 19 153.7 19 152 19 C152 17.35 152 15.7 152 14 C120.65 14 89.3 14 57 14 Z " fill="#FEE7F6" transform="translate(0,0)"/>
<path d="M0 0 C31.35 0 62.7 0 95 0 C95 1.65 95 3.3 95 5 C96.65 5 98.3 5 100 5 C100 48.89 100 92.78 100 138 C98.35 138 96.7 138 95 138 C95 141.3 95 144.6 95 148 C96.65 148 98.3 148 100 148 C100 149.98 100 151.96 100 154 C98.35 154 96.7 154 95 154 C95 155.65 95 157.3 95 159 C73.88 159 52.76 159 31 159 C31 160.65 31 162.3 31 164 C27.37 164 23.74 164 20 164 C20 162.35 20 160.7 20 159 C18.68 159 17.36 159 16 159 C16 160.65 16 162.3 16 164 C12.37 164 8.74 164 5 164 C5 162.35 5 160.7 5 159 C1.37 159 -2.26 159 -6 159 C-6 157.35 -6 155.7 -6 154 C-7.65 154 -9.3 154 -11 154 C-11 152.02 -11 150.04 -11 148 C-12.98 148 -14.96 148 -17 148 C-17 146.35 -17 144.7 -17 143 C-18.65 143 -20.3 143 -22 143 C-22 102.74 -22 62.48 -22 21 C-20.35 21 -18.7 21 -17 21 C-17 19.35 -17 17.7 -17 16 C-15.02 16 -13.04 16 -11 16 C-11 14.02 -11 12.04 -11 10 C-9.35 10 -7.7 10 -6 10 C-6 8.35 -6 6.7 -6 5 C-4.02 5 -2.04 5 0 5 C0 3.35 0 1.7 0 0 Z M5 5 C5 6.98 5 8.96 5 11 C3.35 11 1.7 11 0 11 C0 50.93 0 90.86 0 132 C31.35 132 62.7 132 95 132 C95 90.09 95 48.18 95 5 C65.3 5 35.6 5 5 5 Z " fill="#5161A6" transform="translate(57,14)"/>
<path d="M0 0 C31.35 0 62.7 0 95 0 C95 1.65 95 3.3 95 5 C65.3 5 35.6 5 5 5 C5 6.65 5 8.3 5 10 C3.02 10 1.04 10 -1 10 C-1 50.26 -1 90.52 -1 132 C-4.63 132 -8.26 132 -12 132 C-12 135.3 -12 138.6 -12 142 C-13.32 142 -14.64 142 -16 142 C-16.15457033 128.58610245 -16.30274016 115.17215043 -16.4429636 101.75809479 C-16.50828624 95.52798112 -16.5757308 89.29790613 -16.64819336 83.06787109 C-16.71817311 77.04434345 -16.78235874 71.02077829 -16.84269524 64.99714661 C-16.86658575 62.71049294 -16.89248856 60.42385929 -16.92053413 58.13725281 C-17.07163511 45.70467606 -17.04812887 33.39653536 -16 21 C-14.35 21 -12.7 21 -11 21 C-11 17.37 -11 13.74 -11 10 C-9.35 10 -7.7 10 -6 10 C-6 8.35 -6 6.7 -6 5 C-4.02 5 -2.04 5 0 5 C0 3.35 0 1.7 0 0 Z " fill="#4D63AD" transform="translate(57,14)"/>
<path d="M0 0 C1.65 0 3.3 0 5 0 C5 43.89 5 87.78 5 133 C3.35 133 1.7 133 0 133 C0 136.3 0 139.6 0 143 C1.65 143 3.3 143 5 143 C5 144.98 5 146.96 5 149 C3.35 149 1.7 149 0 149 C0 150.65 0 152.3 0 154 C-21.12 154 -42.24 154 -64 154 C-64 155.65 -64 157.3 -64 159 C-67.63 159 -71.26 159 -75 159 C-75 157.35 -75 155.7 -75 154 C-76.32 154 -77.64 154 -79 154 C-79 155.65 -79 157.3 -79 159 C-82.63 159 -86.26 159 -90 159 C-90 157.35 -90 155.7 -90 154 C-93.63 154 -97.26 154 -101 154 C-101 152.35 -101 150.7 -101 149 C-95.72 149 -90.44 149 -85 149 C-85 150.65 -85 152.3 -85 154 C-83.35 154 -81.7 154 -80 154 C-80 152.02 -80 150.04 -80 148 C-78.02 148 -76.04 148 -74 148 C-74 149.98 -74 151.96 -74 154 C-72.35 154 -70.7 154 -69 154 C-69 152.02 -69 150.04 -69 148 C-46.23 148 -23.46 148 0 148 C0 146.68 0 145.36 0 144 C-1.65 144 -3.3 144 -5 144 C-5 140.04 -5 136.08 -5 132 C-3.35 132 -1.7 132 0 132 C0 88.44 0 44.88 0 0 Z " fill="#1A1D38" transform="translate(152,19)"/>
<path d="M0 0 C29.7 0 59.4 0 90 0 C90 41.91 90 83.82 90 127 C58.65 127 27.3 127 -5 127 C-5 87.07 -5 47.14 -5 6 C-3.35 6 -1.7 6 0 6 C0 44.28 0 82.56 0 122 C29.37 122 58.74 122 89 122 C89 82.07 89 42.14 89 1 C59.63 1 30.26 1 0 1 C0 0.67 0 0.34 0 0 Z " fill="#B19CDE" transform="translate(62,19)"/>
<path d="M0 0 C31.35 0 62.7 0 95 0 C95 1.65 95 3.3 95 5 C65.3 5 35.6 5 5 5 C5 6.65 5 8.3 5 10 C3.02 10 1.04 10 -1 10 C-1 50.26 -1 90.52 -1 132 C-2.65 132 -4.3 132 -6 132 C-6 93.72 -6 55.44 -6 16 C-7.65 16 -9.3 16 -11 16 C-11 14.02 -11 12.04 -11 10 C-9.35 10 -7.7 10 -6 10 C-6 8.35 -6 6.7 -6 5 C-4.02 5 -2.04 5 0 5 C0 3.35 0 1.7 0 0 Z " fill="#1A1D38" transform="translate(57,14)"/>
<path d="M0 0 C20.79 0 41.58 0 63 0 C63 3.96 63 7.92 63 12 C42.21 12 21.42 12 0 12 C0 15.3 0 18.6 0 22 C-1.65 22 -3.3 22 -5 22 C-5 20.02 -5 18.04 -5 16 C-6.98 16 -8.96 16 -11 16 C-11 17.98 -11 19.96 -11 22 C-12.65 22 -14.3 22 -16 22 C-16 18.7 -16 15.4 -16 12 C-19.3 12 -22.6 12 -26 12 C-26 8.37 -26 4.74 -26 1 C-22.7 1 -19.4 1 -16 1 C-16 2.65 -16 4.3 -16 6 C-10.72 6 -5.44 6 0 6 C0 4.02 0 2.04 0 0 Z " fill="#BFC1D4" transform="translate(83,151)"/>
<path d="M0 0 C1.98 0 3.96 0 6 0 C6 1.65 6 3.3 6 5 C4.35 5 2.7 5 1 5 C1 44.93 1 84.86 1 126 C2.32 126 3.64 126 5 126 C5 122.7 5 119.4 5 116 C6.98 116 8.96 116 11 116 C11 119.63 11 123.26 11 127 C9.35 127 7.7 127 6 127 C6 128.65 6 130.3 6 132 C4.02 132 2.04 132 0 132 C0 130.35 0 128.7 0 127 C-1.65 127 -3.3 127 -5 127 C-5 86.74 -5 46.48 -5 5 C-3.35 5 -1.7 5 0 5 C0 3.35 0 1.7 0 0 Z " fill="#1A1D38" transform="translate(40,30)"/>
<path d="M0 0 C1.65 0 3.3 0 5 0 C5 43.56 5 87.12 5 132 C3.35 132 1.7 132 0 132 C0 88.44 0 44.88 0 0 Z " fill="#1A1D38" transform="translate(152,19)"/>
<path d="M0 0 C3.63 0 7.26 0 11 0 C11 1.65 11 3.3 11 5 C12.65 5 14.3 5 16 5 C16 3.35 16 1.7 16 0 C19.63 0 23.26 0 27 0 C27 1.65 27 3.3 27 5 C25.35 5 23.7 5 22 5 C22 8.63 22 12.26 22 16 C23.65 16 25.3 16 27 16 C27 17.65 27 19.3 27 21 C25.35 21 23.7 21 22 21 C22 22.65 22 24.3 22 26 C20.02 26 18.04 26 16 26 C16 27.65 16 29.3 16 31 C14.35 31 12.7 31 11 31 C11 29.35 11 27.7 11 26 C9.35 26 7.7 26 6 26 C6 24.35 6 22.7 6 21 C4.02 21 2.04 21 0 21 C0 19.35 0 17.7 0 16 C-1.65 16 -3.3 16 -5 16 C-5 12.37 -5 8.74 -5 5 C-3.35 5 -1.7 5 0 5 C0 3.35 0 1.7 0 0 Z " fill="#FC7ECF" transform="translate(93,67)"/>
<path d="M0 0 C3.3 0 6.6 0 10 0 C10 1.65 10 3.3 10 5 C15.28 5 20.56 5 26 5 C26 6.65 26 8.3 26 10 C46.79 10 67.58 10 89 10 C89 10.33 89 10.66 89 11 C68.21 11 47.42 11 26 11 C26 14.3 26 17.6 26 21 C24.35 21 22.7 21 21 21 C21 19.02 21 17.04 21 15 C19.02 15 17.04 15 15 15 C15 16.98 15 18.96 15 21 C13.35 21 11.7 21 10 21 C10 17.7 10 14.4 10 11 C6.7 11 3.4 11 0 11 C0 7.37 0 3.74 0 0 Z " fill="#DE84CC" transform="translate(57,152)"/>
<path d="M0 0 C1.98 0 3.96 0 6 0 C6 1.65 6 3.3 6 5 C4.35 5 2.7 5 1 5 C1 10.28 1 15.56 1 21 C0.67 21 0.34 21 0 21 C0 16.05 0 11.1 0 6 C-1.32 6 -2.64 6 -4 6 C-4 45.6 -4 85.2 -4 126 C-2.68 126 -1.36 126 0 126 C0 94.98 0 63.96 0 32 C0.33 32 0.66 32 1 32 C1 63.02 1 94.04 1 126 C2.32 126 3.64 126 5 126 C5 122.7 5 119.4 5 116 C6.98 116 8.96 116 11 116 C11 119.63 11 123.26 11 127 C9.35 127 7.7 127 6 127 C6 128.65 6 130.3 6 132 C4.02 132 2.04 132 0 132 C0 130.35 0 128.7 0 127 C-1.65 127 -3.3 127 -5 127 C-5 86.74 -5 46.48 -5 5 C-3.35 5 -1.7 5 0 5 C0 3.35 0 1.7 0 0 Z " fill="#494C71" transform="translate(40,30)"/>
<path d="M0 0 C20.79 0 41.58 0 63 0 C63 1.65 63 3.3 63 5 C42.21 5 21.42 5 0 5 C0 3.35 0 1.7 0 0 Z " fill="#FFFFFF" transform="translate(83,157)"/>
<path d="M0 0 C0.33 0 0.66 0 1 0 C1 3.63 1 7.26 1 11 C2.65 11 4.3 11 6 11 C6 12.32 6 13.64 6 15 C-16.77 15 -39.54 15 -63 15 C-63 13.68 -63 12.36 -63 11 C-42.21 11 -21.42 11 0 11 C0 7.37 0 3.74 0 0 Z " fill="#4E64AD" transform="translate(146,152)"/>
<path d="M0 0 C1.65 0 3.3 0 5 0 C5 8.58 5 17.16 5 26 C3.35 26 1.7 26 0 26 C0 27.65 0 29.3 0 31 C-1.65 31 -3.3 31 -5 31 C-5 22.42 -5 13.84 -5 5 C-3.35 5 -1.7 5 0 5 C0 3.35 0 1.7 0 0 Z " fill="#4D63AD" transform="translate(46,30)"/>
<path d="M0 0 C3.3 0 6.6 0 10 0 C10 0.33 10 0.66 10 1 C8.35 1 6.7 1 5 1 C5 4.3 5 7.6 5 11 C6.65 11 8.3 11 10 11 C10 12.98 10 14.96 10 17 C8.35 17 6.7 17 5 17 C5 18.65 5 20.3 5 22 C-16.12 22 -37.24 22 -59 22 C-59 21.67 -59 21.34 -59 21 C-38.21 21 -17.42 21 4 21 C4 19.68 4 18.36 4 17 C-18.44 17 -40.88 17 -64 17 C-64 16.67 -64 16.34 -64 16 C-41.23 16 -18.46 16 5 16 C5 14.68 5 13.36 5 12 C3.35 12 1.7 12 0 12 C0 8.04 0 4.08 0 0 Z " fill="#3D436B" transform="translate(147,151)"/>
<path d="M0 0 C1.98 0 3.96 0 6 0 C6 3.63 6 7.26 6 11 C5.67 11 5.34 11 5 11 C5 9.35 5 7.7 5 6 C3.68 6 2.36 6 1 6 C1 7.65 1 9.3 1 11 C-2.63 11 -6.26 11 -10 11 C-10 9.35 -10 7.7 -10 6 C-13.63 6 -17.26 6 -21 6 C-21 4.35 -21 2.7 -21 1 C-15.72 1 -10.44 1 -5 1 C-5 2.65 -5 4.3 -5 6 C-3.35 6 -1.7 6 0 6 C0 4.02 0 2.04 0 0 Z " fill="#1C1F39" transform="translate(72,167)"/>
<path d="M0 0 C1.65 0 3.3 0 5 0 C5 4.95 5 9.9 5 15 C3.02 15 1.04 15 -1 15 C-1 18.3 -1 21.6 -1 25 C-2.32 25 -3.64 25 -5 25 C-5 18.4 -5 11.8 -5 5 C-3.35 5 -1.7 5 0 5 C0 3.35 0 1.7 0 0 Z " fill="#4C63AE" transform="translate(46,131)"/>
<path d="M0 0 C1.65 0 3.3 0 5 0 C5 3.63 5 7.26 5 11 C3.35 11 1.7 11 0 11 C0 12.65 0 14.3 0 16 C-1.65 16 -3.3 16 -5 16 C-5 12.37 -5 8.74 -5 5 C-3.35 5 -1.7 5 0 5 C0 3.35 0 1.7 0 0 Z " fill="#A995DA" transform="translate(46,120)"/>
<path d="M0 0 C3.3 0 6.6 0 10 0 C10 3.63 10 7.26 10 11 C6.7 11 3.4 11 0 11 C0 7.37 0 3.74 0 0 Z " fill="#FC7FCF" transform="translate(115,72)"/>
<path d="M0 0 C3.3 0 6.6 0 10 0 C10 3.3 10 6.6 10 10 C6.7 10 3.4 10 0 10 C0 6.7 0 3.4 0 0 Z " fill="#FFFFFF" transform="translate(57,152)"/>
<path d="M0 0 C1.65 0 3.3 0 5 0 C5 3.3 5 6.6 5 10 C3.35 10 1.7 10 0 10 C0 11.65 0 13.3 0 15 C-1.65 15 -3.3 15 -5 15 C-5 11.7 -5 8.4 -5 5 C-3.35 5 -1.7 5 0 5 C0 3.35 0 1.7 0 0 Z " fill="#AD98DC" transform="translate(46,46)"/>
<path d="M0 0 C5.28 0 10.56 0 16 0 C16 1.98 16 3.96 16 6 C10.72 6 5.44 6 0 6 C0 4.02 0 2.04 0 0 Z " fill="#B35B9B" transform="translate(67,151)"/>
<path d="M0 0 C1.65 0 3.3 0 5 0 C5 3.63 5 7.26 5 11 C3.35 11 1.7 11 0 11 C0 7.37 0 3.74 0 0 Z " fill="#1C203D" transform="translate(46,146)"/>
<path d="M0 0 C1.65 0 3.3 0 5 0 C5 3.63 5 7.26 5 11 C3.35 11 1.7 11 0 11 C0 7.37 0 3.74 0 0 Z " fill="#FEFAFD" transform="translate(115,72)"/>
<path d="M0 0 C3.3 0 6.6 0 10 0 C10 1.65 10 3.3 10 5 C6.7 5 3.4 5 0 5 C0 3.35 0 1.7 0 0 Z " fill="#CACAD8" transform="translate(57,152)"/>
<path d="M0 0 C1.98 0 3.96 0 6 0 C6 3.63 6 7.26 6 11 C5.67 11 5.34 11 5 11 C5 9.35 5 7.7 5 6 C3.68 6 2.36 6 1 6 C1 7.65 1 9.3 1 11 C0.67 11 0.34 11 0 11 C0 7.37 0 3.74 0 0 Z " fill="#946A92" transform="translate(72,167)"/>
<path d="M0 0 C1.32 0 2.64 0 4 0 C4 3.3 4 6.6 4 10 C2.68 10 1.36 10 0 10 C0 6.7 0 3.4 0 0 Z " fill="#1A1D38" transform="translate(147,152)"/>
<path d="M0 0 C1.65 0 3.3 0 5 0 C5 1.65 5 3.3 5 5 C3.35 5 1.7 5 0 5 C0 3.35 0 1.7 0 0 Z " fill="#1D2241" transform="translate(46,162)"/>
<path d="M0 0 C1.65 0 3.3 0 5 0 C5 1.65 5 3.3 5 5 C3.35 5 1.7 5 0 5 C0 3.35 0 1.7 0 0 Z " fill="#1C203D" transform="translate(41,157)"/>
<path d="M0 0 C1.65 0 3.3 0 5 0 C5 1.65 5 3.3 5 5 C3.35 5 1.7 5 0 5 C0 3.35 0 1.7 0 0 Z " fill="#1C203D" transform="translate(41,30)"/>
<path d="M0 0 C1.32 0 2.64 0 4 0 C4 1.65 4 3.3 4 5 C2.68 5 1.36 5 0 5 C0 3.35 0 1.7 0 0 Z " fill="#1F223C" transform="translate(73,168)"/>
<path d="M0 0 C1.65 0 3.3 0 5 0 C5 1.32 5 2.64 5 4 C3.35 4 1.7 4 0 4 C0 2.68 0 1.36 0 0 Z " fill="#1A1D38" transform="translate(152,163)"/>
</svg>
